<svg width="177" height="25" viewBox="0 0 177 25" fill="none" xmlns="http://www.w3.org/2000/svg">
<g id="LOGO">
<path id="Vector" d="M59.3698 6.74984C58.8688 6.3463 58.2924 6.04659 57.6743 5.86821C56.9916 5.66813 56.2834 5.56859 55.572 5.57272C54.7158 5.56007 53.8664 5.72502 53.0772 6.05713C52.3905 6.34311 51.7849 6.794 51.314 7.36989C50.8339 6.7847 50.2142 6.32988 49.5119 6.04744C48.7139 5.71671 47.8568 5.55189 46.993 5.56303C46.2736 5.55793 45.5572 5.65746 44.8664 5.85852C44.2483 6.03691 43.672 6.33661 43.171 6.74016C42.6921 7.1353 42.3066 7.63159 42.0423 8.1934C41.7543 8.82361 41.6135 9.51105 41.6305 10.2037V17.901H45.4186V11.2936C45.3551 10.6796 45.5283 10.0645 45.9031 9.57398C46.0885 9.3963 46.3084 9.25862 46.5492 9.16946C46.79 9.08029 47.0466 9.04156 47.303 9.05565C47.5793 9.04574 47.8546 9.09508 48.1102 9.20036C48.3659 9.30563 48.5961 9.46441 48.7853 9.66601C49.2065 10.22 49.4084 10.91 49.3521 11.6037V17.901H53.1402V11.6037C53.083 10.9092 53.2868 10.2183 53.7118 9.66601C53.9042 9.46453 54.137 9.306 54.395 9.20081C54.6529 9.09562 54.9302 9.04615 55.2086 9.05565C55.463 9.04064 55.7176 9.079 55.9562 9.16827C56.1948 9.25753 56.4121 9.39573 56.5941 9.57398C56.9688 10.0645 57.142 10.6796 57.0785 11.2936V17.901H60.8666V10.2086C60.8836 9.5159 60.7428 8.82845 60.4548 8.19824C60.2026 7.6424 59.8323 7.14816 59.3698 6.74984Z" fill="#F7F7FB"/>
<path id="Vector_2" d="M79.9766 6.86605C79.4066 6.42951 78.7613 6.10114 78.0729 5.89722C77.3196 5.67504 76.5379 5.56407 75.7525 5.56782C74.9655 5.56233 74.1819 5.67333 73.4273 5.89722C72.7382 6.1032 72.0918 6.43136 71.5187 6.86605C70.9723 7.29031 70.5299 7.83374 70.2254 8.45493C69.8963 9.13391 69.7305 9.88036 69.7409 10.6348V17.901H73.5291V11.5019C73.5291 9.87103 74.2654 9.06367 75.738 9.07982C76.0356 9.05938 76.3341 9.10235 76.6139 9.2059C76.8936 9.30945 77.1482 9.47122 77.3608 9.6805C77.7781 10.2009 77.9809 10.8611 77.9275 11.5261V17.901H81.7157V10.6348C81.7239 9.8806 81.5581 9.13466 81.2312 8.45493C80.937 7.83821 80.5083 7.29529 79.9766 6.86605Z" fill="#F7F7FB"/>
<path id="Vector_3" d="M122.905 6.67223C122.277 6.25325 121.57 5.96496 120.827 5.8245C119.984 5.65395 119.125 5.56955 118.265 5.57261C117.007 5.52003 115.759 5.80256 114.646 6.39127C114.704 7.3601 114.796 8.32892 114.947 9.29775C115.953 8.89616 117.018 8.66374 118.1 8.60988C118.675 8.59258 119.25 8.66949 119.8 8.83756L120.319 9.07976C120.531 9.22073 120.704 9.41335 120.822 9.63957C120.94 9.86578 120.998 10.1182 120.992 10.3732C120.774 10.3441 120.508 10.3199 120.154 10.3053C119.8 10.2908 119.398 10.3053 118.899 10.3053C117.651 10.2585 116.406 10.4475 115.227 10.8624C114.973 10.9601 114.729 11.0852 114.501 11.2354C113.576 11.8555 113.111 12.8824 113.111 14.326C113.11 14.846 113.205 15.3617 113.392 15.847C113.592 16.3469 113.927 16.7813 114.36 17.1017C114.927 17.5079 115.567 17.8007 116.245 17.9639C116.76 18.1002 117.287 18.1878 117.819 18.2255C118.245 18.2643 118.706 18.2788 119.209 18.2788C119.912 18.2788 120.58 18.2788 121.215 18.2303C121.849 18.1819 122.416 18.1625 122.91 18.1141C123.404 18.0656 123.821 18.0269 124.15 17.9881C124.365 17.9699 124.577 17.9326 124.785 17.8767V10.7268C124.813 9.87415 124.637 9.0272 124.271 8.25626C123.958 7.62114 123.488 7.07611 122.905 6.67223ZM121.016 15.4353C120.792 15.4849 120.563 15.5141 120.333 15.5225C119.989 15.5225 119.611 15.5515 119.205 15.5515C118.786 15.5673 118.368 15.5282 117.96 15.4353C117.704 15.3787 117.463 15.2698 117.252 15.1156C117.108 15.0115 117.001 14.8637 116.947 14.6941C116.901 14.5484 116.876 14.3966 116.874 14.2436C116.875 14.0601 116.908 13.878 116.971 13.7059C117.037 13.5254 117.153 13.3674 117.306 13.2506C117.514 13.0962 117.751 12.9857 118.003 12.926C118.381 12.8401 118.768 12.801 119.156 12.8098C119.708 12.8098 120.125 12.8098 120.386 12.8485C120.598 12.8634 120.808 12.8893 121.016 12.926V15.4353Z" fill="#F7F7FB"/>
<path id="Vector_4" d="M145.111 6.74985C144.611 6.34687 144.037 6.04719 143.42 5.86821C142.736 5.66814 142.026 5.5686 141.313 5.57272C140.457 5.56008 139.607 5.72502 138.818 6.05713C138.132 6.34311 137.526 6.794 137.055 7.36989C136.575 6.7847 135.955 6.32988 135.253 6.04744C134.457 5.7167 133.601 5.55187 132.739 5.56303C132.018 5.55759 131.3 5.65714 130.608 5.85852C129.99 6.03857 129.414 6.33812 128.912 6.74016C128.435 7.13663 128.049 7.6326 127.783 8.1934C127.498 8.82439 127.357 9.51128 127.372 10.2037V17.9011H131.16V11.2936C131.1 10.6762 131.282 10.0596 131.668 9.57398C131.853 9.39596 132.072 9.258 132.312 9.1688C132.552 9.07959 132.808 9.04107 133.063 9.05566C133.34 9.04574 133.615 9.09508 133.871 9.20036C134.126 9.30563 134.357 9.46441 134.546 9.66602C134.967 10.22 135.169 10.91 135.113 11.6037V17.9011H138.901V11.6037C138.842 10.9083 139.048 10.2165 139.477 9.66602C139.667 9.46315 139.899 9.30364 140.157 9.19832C140.414 9.093 140.691 9.04434 140.969 9.05566C141.224 9.04056 141.48 9.07886 141.719 9.16812C141.958 9.25737 142.176 9.3956 142.359 9.57398C142.734 10.0645 142.907 10.6796 142.844 11.2936V17.9011H146.632V10.2086C146.647 9.51553 146.505 8.82806 146.215 8.19824C145.959 7.63955 145.582 7.14482 145.111 6.74985Z" fill="#F7F7FB"/>
<path id="Vector_5" d="M161.523 9.38C161.184 8.62785 160.7 7.94974 160.099 7.38421C159.482 6.81276 158.764 6.36104 157.982 6.05208C156.319 5.41982 154.481 5.41982 152.818 6.05208C152.039 6.3621 151.325 6.81377 150.711 7.38421C150.111 7.94722 149.631 8.62619 149.301 9.38C148.968 10.1225 148.79 10.9253 148.778 11.7391V11.8989C148.772 12.7452 148.941 13.5835 149.274 14.3613C149.608 15.1391 150.099 15.8395 150.716 16.4185C151.329 16.9892 152.043 17.4395 152.823 17.7458C154.483 18.3919 156.326 18.3919 157.987 17.7458C158.769 17.4358 159.486 16.9805 160.099 16.404C160.7 15.837 161.184 15.1572 161.523 14.4034C161.87 13.6093 162.045 12.7509 162.036 11.8844V11.7246C162.021 10.9169 161.846 10.1202 161.523 9.38ZM157.958 13.0761C157.834 13.4235 157.637 13.7405 157.381 14.0062C157.129 14.2646 156.83 14.4719 156.5 14.6165C156.156 14.7712 155.782 14.8489 155.405 14.8442C155.024 14.8524 154.647 14.7746 154.3 14.6165C153.973 14.4705 153.677 14.2633 153.428 14.0062C153.171 13.7417 152.974 13.4243 152.852 13.0761C152.715 12.6988 152.646 12.3003 152.648 11.8989C152.644 11.8458 152.644 11.7923 152.648 11.7391C152.659 11.3935 152.725 11.0518 152.842 10.7267C152.967 10.3795 153.163 10.0626 153.419 9.79659C153.669 9.53947 153.964 9.33088 154.291 9.18139C154.639 9.03117 155.016 8.95686 155.395 8.9634C155.771 8.96022 156.144 9.03442 156.49 9.18139C156.819 9.32985 157.118 9.53849 157.371 9.79659C157.625 10.0638 157.822 10.3804 157.948 10.7267C158.066 11.0514 158.13 11.3935 158.137 11.7391C158.142 11.7923 158.142 11.8458 158.137 11.8989C158.147 12.2988 158.086 12.6973 157.958 13.0761Z" fill="#F7F7FB"/>
<path id="Vector_6" d="M93.1094 2.20117V6.86607C92.723 6.5179 92.2871 6.22896 91.816 6.00866C91.1409 5.68767 90.3976 5.53635 89.6507 5.56784C88.8712 5.5708 88.1008 5.73576 87.3884 6.05226C86.6921 6.34753 86.0639 6.78282 85.5428 7.33111C85.0001 7.90485 84.5755 8.57968 84.293 9.31721C83.9764 10.1472 83.8219 11.0303 83.8377 11.9185C83.8202 12.8049 83.985 13.6853 84.3221 14.5053C84.63 15.2617 85.0957 15.9438 85.6881 16.5059C86.2929 17.0635 87.005 17.4921 87.7808 17.7654C88.6 18.0877 89.4728 18.2521 90.3531 18.2498C91.4115 18.2708 92.4621 18.0643 93.4339 17.6443C94.3362 17.2511 95.1243 16.6363 95.7252 15.8568C96.1195 15.2899 96.4038 14.654 96.5632 13.9821C96.7874 13.1337 96.8918 12.2581 96.8733 11.3808V2.20117C95.6271 2.03972 94.3653 2.03972 93.1191 2.20117H93.1094ZM92.3682 13.9821C91.843 14.4742 91.1503 14.7481 90.4306 14.7481C89.7108 14.7481 89.0181 14.4742 88.4929 13.9821C88.2349 13.7102 88.0345 13.389 87.9038 13.0377C87.7731 12.6864 87.7148 12.3123 87.7324 11.9379C87.702 11.1691 87.9752 10.4192 88.4929 9.85006C88.8824 9.46284 89.3783 9.2003 89.9174 9.09592C90.4566 8.99153 91.0147 9.05002 91.5205 9.26392C91.8419 9.40956 92.1316 9.61694 92.3731 9.87428C92.6211 10.1405 92.8137 10.4534 92.9398 10.7947C93.0755 11.1605 93.1444 11.5477 93.1433 11.9379C93.1603 12.3135 93.1004 12.6886 92.9671 13.0401C92.8338 13.3917 92.63 13.7122 92.3682 13.9821Z" fill="#F7F7FB"/>
<path id="Vector_7" d="M109.691 6.7644C109.243 6.34559 108.709 6.0298 108.126 5.83917C107.499 5.64349 106.845 5.54865 106.188 5.55821C105.509 5.53647 104.831 5.645 104.193 5.87792C103.746 6.05617 103.33 6.30475 102.962 6.61423V2.20122C102.347 2.11911 101.727 2.07865 101.107 2.08012C100.469 2.08014 99.831 2.12221 99.1982 2.20606V17.9059H102.982V11.6909C102.922 10.9849 103.132 10.2826 103.568 9.72417C104.012 9.33277 104.578 9.10847 105.17 9.0899C105.761 9.07133 106.341 9.25966 106.808 9.62244C107.206 10.1121 107.398 10.7378 107.341 11.3663V17.9059H111.125V10.5913C111.143 9.82438 111.013 9.06113 110.742 8.34359C110.515 7.74477 110.155 7.20494 109.691 6.7644Z" fill="#F7F7FB"/>
<path id="Vector_8" d="M67.4062 5.70338V17.9058H63.6133V5.70338C64.2427 5.61784 64.877 5.57415 65.5122 5.57258C66.1328 5.57049 66.7528 5.61258 67.3675 5.69853L67.4062 5.70338Z" fill="#F7F7FB"/>
<path id="Vector_9" d="M177 17.9059H172.321C172.006 17.4845 171.662 17.0485 171.289 16.6125C171.129 16.4285 170.969 16.2444 170.804 16.0651C170.64 15.8859 170.359 15.5807 170.136 15.3385C169.744 14.9316 169.356 14.5392 168.983 14.1711L167.951 13.1538V17.9059H164.163V2.21091C164.792 2.12537 165.427 2.08168 166.062 2.08012C166.681 2.07864 167.299 2.1191 167.912 2.20122H167.951V9.9034C168.232 9.67088 168.528 9.41899 168.847 9.16225C169.167 8.90551 169.487 8.64393 169.787 8.38234L170.664 7.65572C170.94 7.4232 171.148 7.23912 171.332 7.08411C171.516 6.9291 171.773 6.69658 171.952 6.55126C172.132 6.40593 173.149 5.50492 173.953 4.81706C174.808 5.55496 175.617 6.34441 176.375 7.18099C176.075 7.49586 175.697 7.84949 175.251 8.24186C174.806 8.63424 174.457 8.92004 174.035 9.25913L173.861 9.39961L172.476 10.5041C172.025 10.8577 171.667 11.1532 171.386 11.3906C172.426 12.3378 173.409 13.3455 174.331 14.4084L174.597 14.7282C175.46 15.7395 176.262 16.8006 177 17.9059Z" fill="#F7F7FB"/>
<path id="Vector_10" d="M31.2156 16.753C30.7691 16.2449 30.297 15.7599 29.8011 15.2998C29.4621 14.9849 29.1181 14.6894 28.7597 14.3987L28.7257 14.3697C28.5126 14.5586 28.2946 14.7475 28.0718 14.9219C24.4464 17.8893 19.8806 19.4647 15.1967 19.3643C10.5129 19.264 6.01875 17.4945 2.5238 14.3745L2.48989 14.4036L2.42207 14.3455C1.54183 15.0765 0.731023 15.8873 0 16.7675C1.76739 19.1058 4.03765 21.0169 6.643 22.3597C9.24834 23.7026 12.1222 24.4427 15.052 24.5255C17.9819 24.6083 20.8929 24.0316 23.5699 22.838C26.2469 21.6444 28.6215 19.8645 30.5181 17.6298L31.2156 16.7675V16.753Z" fill="#F7F7FB"/>
<path id="Vector_11" d="M10.0563 14.1807L10.1919 14.2582C11.8475 15.1978 13.7185 15.6918 15.6222 15.6918C17.5258 15.6918 19.3969 15.1978 21.0525 14.2582L21.1833 14.1807C22.1525 13.6 22.9878 12.8208 23.6344 11.8942C24.3725 10.8532 24.7717 9.60993 24.7776 8.33379C24.7776 4.26956 20.6746 0.970703 15.6222 0.970703C10.5697 0.970703 6.46191 4.29378 6.46191 8.33379C6.4661 9.40387 6.74999 10.4543 7.28542 11.3808C7.959 12.5321 8.91198 13.4951 10.0563 14.1807ZM12.3815 5.74702C12.8162 5.40124 13.308 5.13403 13.8347 4.95743C14.1159 4.86314 14.4042 4.79186 14.697 4.74429C14.996 4.68979 15.2989 4.65902 15.6028 4.65225C16.4994 4.63684 17.3855 4.8467 18.1799 5.26261C18.6493 5.51682 19.068 5.85506 19.4151 6.2605C19.7402 6.64156 19.9767 7.08989 20.1079 7.57326C20.1682 7.81571 20.1991 8.06457 20.1999 8.31442C20.1985 8.56424 20.1677 8.81301 20.1079 9.05557C19.9812 9.53094 19.7513 9.97255 19.4345 10.349C19.0866 10.7459 18.6677 11.0745 18.1993 11.3178C17.4071 11.7672 16.5135 12.0073 15.6028 12.0153C15.2929 12.016 14.9835 11.9917 14.6776 11.9427C14.3842 11.8958 14.0957 11.8229 13.8153 11.7247C13.2878 11.5501 12.7957 11.2827 12.3621 10.9351C12.0744 10.6982 11.8244 10.4189 11.6209 10.1067C11.249 9.58649 11.0475 8.96365 11.0445 8.32411C11.0606 7.82194 11.1891 7.32978 11.4204 6.8838C11.6518 6.43783 11.9802 6.04938 12.3815 5.74702Z" fill="#F7F7FB"/>
</g>
</svg>
