<svg xmlns="http://www.w3.org/2000/svg" xmlns:xlink="http://www.w3.org/1999/xlink" viewBox="53.79 51.14 365.39 48.64"><defs><style>.cls-1{fill:url(#linear-gradient);}.cls-2{fill:url(#linear-gradient-2);}.cls-3{fill:url(#linear-gradient-3);}.cls-4{fill:url(#linear-gradient-4);}.cls-5{fill:url(#linear-gradient-5);}.cls-6{fill:url(#linear-gradient-6);}.cls-7{fill:url(#linear-gradient-7);}.cls-8{fill:url(#linear-gradient-8);}.cls-9{fill:url(#linear-gradient-9);}.cls-10{fill:url(#linear-gradient-10);}.cls-11{fill:url(#linear-gradient-11);}</style><linearGradient id="linear-gradient" x1="32.07" y1="73.54" x2="373.29" y2="73.1" gradientUnits="userSpaceOnUse"><stop offset="0" stop-color="#46e9c9"/><stop offset="0.5" stop-color="#2eb7f3"/><stop offset="1" stop-color="#8a4fff"/></linearGradient><linearGradient id="linear-gradient-2" x1="32.07" y1="73.6" x2="373.29" y2="73.17" xlink:href="#linear-gradient"/><linearGradient id="linear-gradient-3" x1="32.07" y1="74.05" x2="373.29" y2="73.61" xlink:href="#linear-gradient"/><linearGradient id="linear-gradient-4" x1="32.07" y1="73.76" x2="373.29" y2="73.33" xlink:href="#linear-gradient"/><linearGradient id="linear-gradient-5" x1="32.07" y1="74.14" x2="373.29" y2="73.71" xlink:href="#linear-gradient"/><linearGradient id="linear-gradient-6" x1="32.07" y1="70.37" x2="373.28" y2="69.94" xlink:href="#linear-gradient"/><linearGradient id="linear-gradient-7" x1="32.07" y1="70.07" x2="373.28" y2="69.64" xlink:href="#linear-gradient"/><linearGradient id="linear-gradient-8" x1="32.07" y1="73.58" x2="373.29" y2="73.14" xlink:href="#linear-gradient"/><linearGradient id="linear-gradient-9" x1="32.07" y1="70.25" x2="373.28" y2="69.81" xlink:href="#linear-gradient"/><linearGradient id="linear-gradient-10" x1="32.09" y1="89.32" x2="373.31" y2="88.88" xlink:href="#linear-gradient"/><linearGradient id="linear-gradient-11" x1="32.06" y1="66.41" x2="373.28" y2="65.97" xlink:href="#linear-gradient"/></defs><g id="Layer_1" data-name="Layer 1"><path class="cls-1" d="M176.35,63.07a10,10,0,0,0-3.5-1.82,15.12,15.12,0,0,0-4.34-.61,12.79,12.79,0,0,0-5.15,1,9.34,9.34,0,0,0-3.64,2.71A9.3,9.3,0,0,0,156,61.62a13.14,13.14,0,0,0-5.2-1,15.32,15.32,0,0,0-4.39.61,10,10,0,0,0-3.5,1.82,8.68,8.68,0,0,0-2.33,3,9.43,9.43,0,0,0-.85,4.15V86.09h7.82V72.45a5,5,0,0,1,1-3.55,3.87,3.87,0,0,1,2.89-1.07,4,4,0,0,1,3.06,1.26,5.83,5.83,0,0,1,1.17,4v13h7.82v-13a5.78,5.78,0,0,1,1.18-4,4.08,4.08,0,0,1,3.09-1.26,3.77,3.77,0,0,1,2.86,1.07,5,5,0,0,1,1,3.55V86.09h7.82V70.21a9.43,9.43,0,0,0-.85-4.15A8.68,8.68,0,0,0,176.35,63.07Z"/><path class="cls-2" d="M218.89,63.31a12.13,12.13,0,0,0-3.93-2,16.65,16.65,0,0,0-4.79-.68,16.47,16.47,0,0,0-4.8.68,12.39,12.39,0,0,0-3.94,2,9.38,9.38,0,0,0-2.67,3.28,10,10,0,0,0-1,4.5v15h7.82V72.88q0-5.05,4.56-5a4.35,4.35,0,0,1,3.35,1.24,5.4,5.4,0,0,1,1.17,3.81V86.09h7.82v-15a10.13,10.13,0,0,0-1-4.5A9.44,9.44,0,0,0,218.89,63.31Z"/><path class="cls-3" d="M307.51,62.91a11.64,11.64,0,0,0-4.29-1.75,26.22,26.22,0,0,0-5.29-.52,14.66,14.66,0,0,0-7.47,1.69c.12,2,.31,4,.62,6a20.28,20.28,0,0,1,6.51-1.42,10.9,10.9,0,0,1,3.51.47l1.07.5a3.11,3.11,0,0,1,1.39,2.67c-.45-.06-1-.11-1.73-.14s-1.56,0-2.59,0a20.5,20.5,0,0,0-7.58,1.15,7.8,7.8,0,0,0-1.5.77c-1.91,1.28-2.87,3.4-2.87,6.38a8.71,8.71,0,0,0,.58,3.14,6,6,0,0,0,2,2.59,11.16,11.16,0,0,0,3.89,1.78,17.59,17.59,0,0,0,3.25.54c.88.08,1.83.11,2.87.11,1.45,0,2.83,0,4.14-.1s2.48-.14,3.5-.24,1.88-.18,2.56-.26a7.5,7.5,0,0,0,1.31-.23V71.28a11.07,11.07,0,0,0-1.06-5.1A8.64,8.64,0,0,0,307.51,62.91ZM303.61,81a7.85,7.85,0,0,1-1.41.18c-.71,0-1.49.06-2.33.06A9.9,9.9,0,0,1,297.3,81a3.91,3.91,0,0,1-1.46-.66,1.71,1.71,0,0,1-.63-.87,3.16,3.16,0,0,1-.15-.93,3.21,3.21,0,0,1,.2-1.11,2.08,2.08,0,0,1,.69-.94,3.94,3.94,0,0,1,1.44-.67,9.75,9.75,0,0,1,2.38-.24c1.14,0,2,0,2.54.08a12.64,12.64,0,0,1,1.3.16Z"/><path class="cls-4" d="M353.35,63.07a10,10,0,0,0-3.49-1.82,15.19,15.19,0,0,0-4.35-.61,12.79,12.79,0,0,0-5.15,1,9.34,9.34,0,0,0-3.64,2.71A9.3,9.3,0,0,0,333,61.62a13.09,13.09,0,0,0-5.19-1,15.34,15.34,0,0,0-4.4.61,10.14,10.14,0,0,0-3.5,1.82,8.8,8.8,0,0,0-2.33,3,9.58,9.58,0,0,0-.85,4.15V86.09h7.82V72.45a4.94,4.94,0,0,1,1.05-3.55,3.83,3.83,0,0,1,2.88-1.07,4,4,0,0,1,3.06,1.26,5.83,5.83,0,0,1,1.17,4v13h7.82v-13a5.73,5.73,0,0,1,1.19-4,4,4,0,0,1,3.08-1.26,3.79,3.79,0,0,1,2.87,1.07,5,5,0,0,1,1,3.55V86.09h7.82V70.21a9.43,9.43,0,0,0-.86-4.15A8.56,8.56,0,0,0,353.35,63.07Z"/><path class="cls-5" d="M387.23,68.5a13,13,0,0,0-2.94-4.12,14,14,0,0,0-4.37-2.75,15,15,0,0,0-10.66,0,14,14,0,0,0-4.35,2.75A12.55,12.55,0,0,0,362,68.5a12.34,12.34,0,0,0-1.08,4.87v.33a12.67,12.67,0,0,0,4,9.33,13.78,13.78,0,0,0,4.35,2.74,14.7,14.7,0,0,0,10.66,0A13.77,13.77,0,0,0,384.29,83a13,13,0,0,0,2.94-4.13,12.69,12.69,0,0,0,1.06-5.2v-.33A12.69,12.69,0,0,0,387.23,68.5Zm-7.36,7.63a5.37,5.37,0,0,1-1.19,1.92,5.77,5.77,0,0,1-1.82,1.26,5.35,5.35,0,0,1-2.26.47,5.22,5.22,0,0,1-2.28-.47,5.8,5.8,0,0,1-1.8-1.26,5.24,5.24,0,0,1-1.19-1.92,7,7,0,0,1-.42-2.43,1.88,1.88,0,0,1,0-.33,6.75,6.75,0,0,1,.4-2.09,5.41,5.41,0,0,1,1.19-1.92,6,6,0,0,1,1.8-1.27,5.52,5.52,0,0,1,2.28-.45,5.66,5.66,0,0,1,2.26.45,6,6,0,0,1,1.82,1.27,5.55,5.55,0,0,1,1.19,1.92,6.46,6.46,0,0,1,.39,2.09,1.88,1.88,0,0,1,0,.33A7,7,0,0,1,379.87,76.13Z"/><path class="cls-6" d="M246,53.68v9.63a10.86,10.86,0,0,0-2.67-1.77,9.48,9.48,0,0,0-4.47-.91,11.61,11.61,0,0,0-4.67,1,11.39,11.39,0,0,0-3.81,2.64,12.44,12.44,0,0,0-2.58,4.1,14.35,14.35,0,0,0-.94,5.37,13.35,13.35,0,0,0,1,5.34,11.85,11.85,0,0,0,2.82,4.13A12.5,12.5,0,0,0,235,85.81a14.4,14.4,0,0,0,5.31,1,15.27,15.27,0,0,0,6.36-1.25,12.05,12.05,0,0,0,4.73-3.69A11.38,11.38,0,0,0,253.13,78a19.42,19.42,0,0,0,.64-5.37V53.68a30.16,30.16,0,0,0-7.75,0ZM244.47,78a5.85,5.85,0,0,1-8,0,5.74,5.74,0,0,1-1.57-4.22,6.05,6.05,0,0,1,1.57-4.31,5.71,5.71,0,0,1,6.25-1.21,5.56,5.56,0,0,1,1.76,1.26,5.67,5.67,0,0,1,1.17,1.9,6.73,6.73,0,0,1,.42,2.36A5.69,5.69,0,0,1,244.47,78Z"/><path class="cls-7" d="M280.23,63.1A8.68,8.68,0,0,0,277,61.19a12.8,12.8,0,0,0-4-.58,11,11,0,0,0-4.12.66,9.31,9.31,0,0,0-2.54,1.52V53.68a28.43,28.43,0,0,0-3.83-.25,30,30,0,0,0-3.94.26V86.1h7.81V73.27a5.81,5.81,0,0,1,1.21-4.06,5.25,5.25,0,0,1,6.69-.21,5,5,0,0,1,1.1,3.6V86.1h7.81V71a12.28,12.28,0,0,0-.79-4.64A8.78,8.78,0,0,0,280.23,63.1Z"/><path class="cls-8" d="M192.94,60.91V86.1h-7.83V60.91a29.65,29.65,0,0,1,3.92-.27,27,27,0,0,1,3.83.26Z"/><path class="cls-9" d="M419.18,86.1h-9.66c-.65-.87-1.36-1.77-2.13-2.67-.33-.38-.66-.76-1-1.13s-.92-1-1.38-1.5c-.81-.84-1.61-1.65-2.38-2.41l-2.13-2.1V86.1h-7.82V53.7a29.65,29.65,0,0,1,3.92-.27,28.28,28.28,0,0,1,3.82.25l.08,0V69.58c.58-.48,1.19-1,1.85-1.53s1.32-1.07,1.94-1.61l1.81-1.5c.57-.48,1-.86,1.38-1.18s.91-.8,1.28-1.1,2.47-2.16,4.13-3.58a57.21,57.21,0,0,1,5,4.88s0,0,0,0c-.62.65-1.4,1.38-2.32,2.19s-1.64,1.4-2.51,2.1l-.36.29-2.86,2.28c-.93.73-1.67,1.34-2.25,1.83a73.93,73.93,0,0,1,6.08,6.23l.55.66A70.17,70.17,0,0,1,419.18,86.1Z"/><path class="cls-10" d="M118.23,83.72a41.15,41.15,0,0,0-2.92-3c-.7-.65-1.41-1.26-2.15-1.86l-.07-.06c-.44.39-.89.78-1.35,1.14A40.59,40.59,0,0,1,59,78.81l-.07.06-.14-.12a38.34,38.34,0,0,0-5,5l0,0a40.38,40.38,0,0,0,63,1.78l1.44-1.78Z"/><path class="cls-11" d="M74.55,78.41l.28.16a22.71,22.71,0,0,0,22.42,0l.27-.16a16.53,16.53,0,0,0,5.06-4.72,12.81,12.81,0,0,0,2.36-7.35c0-8.39-8.47-15.2-18.9-15.2S67.13,58,67.13,66.34a12.67,12.67,0,0,0,1.7,6.29A16.38,16.38,0,0,0,74.55,78.41ZM79.35,61a9.85,9.85,0,0,1,3-1.63,11.3,11.3,0,0,1,1.78-.44A11.91,11.91,0,0,1,86,58.74,11.06,11.06,0,0,1,91.32,60a9,9,0,0,1,2.55,2.06,7,7,0,0,1,1.43,2.71,6.41,6.41,0,0,1,.19,1.53,6.54,6.54,0,0,1-.19,1.53,6.91,6.91,0,0,1-1.39,2.67l0,0a8.76,8.76,0,0,1-2.55,2A11.06,11.06,0,0,1,86,73.94a11.92,11.92,0,0,1-1.91-.15,10.31,10.31,0,0,1-1.78-.45,9.64,9.64,0,0,1-3-1.63A7.57,7.57,0,0,1,77.78,70a6.38,6.38,0,0,1-1.19-3.68A6.94,6.94,0,0,1,79.35,61Z"/></g></svg>