<svg width="76" height="76" viewBox="0 0 76 76" fill="none" xmlns="http://www.w3.org/2000/svg">
<g id="Group 10">
<circle id="Ellipse 21" cx="38" cy="38" r="38" fill="url(#paint0_linear_40_4548)"/>
<path id="&#226;&#128;&#156;" d="M28.4578 36.9099C32.7402 37.1715 36.0916 40.3981 36.0916 44.4968C36.0916 48.7698 32.7402 52.2581 28.0854 52.2581C23.2445 52.2581 20.4517 48.6826 20.4517 43.7119C20.4517 35.4274 24.8271 28.451 34.6952 23.7419V29.0615C31.4369 30.98 29.3888 33.5961 28.4578 36.9099ZM47.9147 36.9099C52.197 37.1715 55.5484 40.3981 55.5484 44.4968C55.5484 48.7698 52.197 52.2581 47.5423 52.2581C42.7013 52.2581 39.9085 48.6826 39.9085 43.7119C39.9085 35.4274 44.2839 28.451 54.152 23.7419V29.0615C50.8937 30.98 48.8456 33.5961 47.9147 36.9099Z" fill="#F7F7FB"/>
</g>
<defs>
<linearGradient id="paint0_linear_40_4548" x1="-1.94924e-06" y1="5.50001" x2="79.5" y2="35" gradientUnits="userSpaceOnUse">
<stop stop-color="#46E9C9"/>
<stop offset="0.5" stop-color="#2EB7F3"/>
<stop offset="1" stop-color="#8A4FFF"/>
</linearGradient>
</defs>
</svg>
