<svg width="38" height="38" viewBox="0 0 38 38" fill="none" xmlns="http://www.w3.org/2000/svg">
<circle cx="18.8632" cy="18.8925" r="18.8632" fill="#F7F7FB"/>
<path d="M19.002 14.4143C16.4481 14.4143 14.3881 16.4748 14.3881 19.0293C14.3881 21.5838 16.4481 23.6443 19.002 23.6443C21.5559 23.6443 23.616 21.5838 23.616 19.0293C23.616 16.4748 21.5559 14.4143 19.002 14.4143ZM19.002 22.0296C17.3516 22.0296 16.0023 20.6841 16.0023 19.0293C16.0023 17.3745 17.3476 16.029 19.002 16.029C20.6564 16.029 22.0017 17.3745 22.0017 19.0293C22.0017 20.6841 20.6524 22.0296 19.002 22.0296ZM24.8809 14.2255C24.8809 14.824 24.399 15.302 23.8047 15.302C23.2064 15.302 22.7285 14.82 22.7285 14.2255C22.7285 13.6311 23.2104 13.1491 23.8047 13.1491C24.399 13.1491 24.8809 13.6311 24.8809 14.2255ZM27.9368 15.318C27.8685 13.8761 27.5392 12.5989 26.4831 11.5465C25.431 10.4942 24.154 10.1649 22.7124 10.0926C21.2267 10.0082 16.7733 10.0082 15.2876 10.0926C13.85 10.1608 12.573 10.4902 11.5169 11.5425C10.4608 12.5948 10.1355 13.8721 10.0632 15.314C9.97892 16.8001 9.97892 21.2544 10.0632 22.7406C10.1315 24.1825 10.4608 25.4597 11.5169 26.5121C12.573 27.5644 13.846 27.8937 15.2876 27.966C16.7733 28.0504 21.2267 28.0504 22.7124 27.966C24.154 27.8978 25.431 27.5684 26.4831 26.5121C27.5352 25.4597 27.8645 24.1825 27.9368 22.7406C28.0211 21.2544 28.0211 16.8041 27.9368 15.318ZM26.0173 24.3351C25.7041 25.1223 25.0977 25.7288 24.3066 26.0461C23.122 26.5161 20.3111 26.4076 19.002 26.4076C17.6929 26.4076 14.878 26.5121 13.6974 26.0461C12.9103 25.7329 12.304 25.1264 11.9867 24.3351C11.5169 23.1502 11.6253 20.3387 11.6253 19.0293C11.6253 17.7199 11.5209 14.9043 11.9867 13.7235C12.2999 12.9362 12.9063 12.3298 13.6974 12.0124C14.882 11.5425 17.6929 11.651 19.002 11.651C20.3111 11.651 23.126 11.5465 24.3066 12.0124C25.0937 12.3257 25.7001 12.9322 26.0173 13.7235C26.4871 14.9084 26.3787 17.7199 26.3787 19.0293C26.3787 20.3387 26.4871 23.1543 26.0173 24.3351Z" fill="#242140"/>
</svg>
