<svg width="38" height="38" viewBox="0 0 38 38" fill="none" xmlns="http://www.w3.org/2000/svg">
<circle cx="18.8632" cy="18.8925" r="18.8632" fill="#F7F7FB"/>
<path d="M14.5814 27.0293H11.2643V15.6793H14.5814V27.0293ZM12.9211 14.131C11.8604 14.131 11 13.1975 11 12.0705C11 11.5291 11.2024 11.0099 11.5627 10.6271C11.9229 10.2443 12.4116 10.0293 12.9211 10.0293C13.4306 10.0293 13.9192 10.2443 14.2795 10.6271C14.6397 11.0099 14.8421 11.5291 14.8421 12.0705C14.8421 13.1975 13.9814 14.131 12.9211 14.131ZM26.9964 27.0293H23.6864V21.5042C23.6864 20.1874 23.6614 18.4987 21.9618 18.4987C20.2371 18.4987 19.9729 19.9294 19.9729 21.4093V27.0293H16.6593V15.6793H19.8407V17.2275H19.8871C20.33 16.3358 21.4118 15.3947 23.0257 15.3947C26.3829 15.3947 27 17.7436 27 20.7946V27.0293H26.9964Z" fill="#242140"/>
</svg>
